<svg width="247" height="177" viewBox="0 0 247 177" fill="none" xmlns="http://www.w3.org/2000/svg">
<path d="M162.5 0C164.157 0.000119198 165.5 1.34322 165.5 3V20.3975C165.5 22.054 164.158 23.3972 162.502 23.3975H145.016C139.5 23.7043 134.969 23.3975 129 23.3975C120.976 23.3975 109.99 23.6112 106.014 23.8906C105.55 23.9232 105.103 24.0746 104.714 24.3281C98.7704 28.1966 94.1028 33.584 90.7119 40.4912C87.3383 47.4979 88.6513 55.8025 88.6514 65.4043C88.6514 74.4871 86.8844 82.5323 89.3496 89.5391C91.8149 96.5457 95.7076 102.061 101.027 106.083C106.347 109.976 113.29 108.436 121.854 108.436C124.708 108.436 127.174 108.565 129.25 108.436C131.456 108.176 133.467 108.695 135.283 108.436C136.196 108.24 137.093 108.307 137.973 108.389C139.447 108.525 140.538 107.343 140.538 105.862V83.9756C140.538 82.3187 139.195 80.9756 137.538 80.9756H117.263C115.606 80.9755 114.263 79.6323 114.263 77.9756V59.4512C114.263 57.7946 115.606 56.4513 117.263 56.4512H163.345C165.001 56.4513 166.345 57.7946 166.345 59.4512V84.5938C208.291 98.9955 239.749 133.938 247 176.5C231.901 150.331 202.561 129.899 166.345 120.748V125.369C166.345 127.026 164.998 128.369 163.342 128.369H93.4707C93.1656 128.369 92.8515 128.324 92.5615 128.229C87.8215 126.675 83.3638 124.179 79.4004 121.07C43.762 130.373 14.9244 150.634 0 176.5C6.16645 140.305 29.839 109.621 62.5801 92.3926C61.6234 84.2728 62.289 75.0824 62.2891 64.8213C62.2891 50.2886 61.0787 37.7015 66.6582 27.0615C70.5199 19.8647 75.5961 12.6942 81.8096 7C84.592 4.45011 87.6021 2.19565 90.834 0.368164C91.2687 0.122362 91.7614 0 92.2607 0H162.5Z" fill="#fbbf24"/>
</svg>
